<svg width="187" height="30" viewBox="0 0 187 30" fill="none" xmlns="http://www.w3.org/2000/svg">
<path d="M5.72016 29.465V8.10699H0V3.66255C1.12483 3.63512 2.13992 3.53909 3.04527 3.37449C3.95062 3.18244 4.75994 2.85322 5.47325 2.38683C6.18656 1.893 6.80384 1.20713 7.3251 0.329219H11.6049V29.465H5.72016Z" fill="#6A48EE"/>
<path d="M18.0514 17.6543V12.5103H32.002V17.6543H18.0514Z" fill="#6A48EE"/>
<path d="M50.0633 29.7942C47.0729 29.7942 44.5215 29.1907 42.409 27.9835C40.324 26.749 38.7327 25.0206 37.6353 22.7984C36.5654 20.5761 36.0304 17.9835 36.0304 15.0206C36.0304 12.0027 36.5791 9.369 37.6765 7.11934C38.8013 4.86968 40.4063 3.12757 42.4913 1.893C44.5764 0.631001 47.0867 0 50.0222 0C52.2444 0 54.2334 0.384088 55.9893 1.15226C57.7451 1.893 59.158 3.00411 60.2279 4.4856C61.3253 5.93964 62.0112 7.73663 62.2856 9.87654H56.6065C56.2499 8.53224 55.5229 7.47599 54.4255 6.70782C53.3555 5.91221 51.9289 5.5144 50.1456 5.5144C48.1703 5.5144 46.5928 5.96708 45.4131 6.87243C44.2609 7.75034 43.4241 8.90261 42.9028 10.3292C42.3816 11.7284 42.1209 13.2099 42.1209 14.7737C42.1209 16.3923 42.3953 17.9287 42.944 19.3827C43.4927 20.8368 44.3569 22.0165 45.5366 22.9218C46.7437 23.8272 48.3212 24.2798 50.2691 24.2798C51.4214 24.2798 52.4502 24.1152 53.3555 23.786C54.2609 23.4294 55.0016 22.9218 55.5777 22.2634C56.1813 21.6049 56.5928 20.823 56.8123 19.9177H62.6971C62.4502 22.0302 61.7369 23.8272 60.5572 25.3086C59.3775 26.7901 57.8823 27.915 56.0716 28.6831C54.2609 29.4239 52.2581 29.7942 50.0633 29.7942Z" fill="#6A48EE"/>
<path d="M67.0126 29.465V0.329219H78.3706C80.5928 0.329219 82.527 0.672154 84.1731 1.35802C85.8466 2.01646 87.136 3.08642 88.0414 4.5679C88.9467 6.02195 89.3994 7.96982 89.3994 10.4115C89.3994 12.6886 88.8919 14.5953 87.8768 16.1317C86.8891 17.668 85.5311 18.8203 83.8027 19.5885C82.0743 20.3292 80.1127 20.6996 77.9179 20.6996H72.8974V29.465H67.0126ZM72.8974 15.4321H77.8356C79.5915 15.4321 80.9769 15.0206 81.992 14.1975C83.0345 13.3471 83.5558 12.0713 83.5558 10.3704C83.5558 8.86145 83.1168 7.72291 82.2389 6.95473C81.3885 6.18656 80.0167 5.80247 78.1237 5.80247H72.8974V15.4321Z" fill="#6A48EE"/>
<path d="M88.5622 29.465L99.9202 0.329219H106.505L117.739 29.465H111.402L109.591 24.4856H96.7104L94.8997 29.465H88.5622ZM98.6034 19.177H107.739L103.212 6.58436L98.6034 19.177Z" fill="#6A48EE"/>
<path d="M124.826 30C123.838 30 123.002 29.6982 122.316 29.0947C121.63 28.4911 121.287 27.6269 121.287 26.5021C121.287 25.3498 121.63 24.4444 122.316 23.786C123.029 23.1276 123.866 22.7984 124.826 22.7984C125.786 22.7984 126.609 23.1276 127.295 23.786C127.981 24.417 128.324 25.3086 128.324 26.4609C128.324 27.6132 127.981 28.4911 127.295 29.0947C126.609 29.6982 125.786 30 124.826 30Z" fill="#6A48EE"/>
<path d="M133.684 29.465V0.329219H145.412C146.867 0.329219 148.252 0.48011 149.569 0.781893C150.913 1.05624 152.12 1.53635 153.19 2.22222C154.26 2.90809 155.097 3.86831 155.701 5.10288C156.332 6.31001 156.647 7.86008 156.647 9.75309C156.647 11.1523 156.414 12.4143 155.947 13.5391C155.481 14.6639 154.795 15.6241 153.89 16.4198C152.984 17.2154 151.901 17.8326 150.639 18.2716L157.1 29.465H150.474L144.795 19.2181H139.569V29.465H133.684ZM139.569 13.9918H145.001C145.851 13.9918 146.62 13.9232 147.305 13.786C148.019 13.6214 148.622 13.3745 149.116 13.0453C149.637 12.716 150.035 12.2771 150.31 11.7284C150.611 11.1797 150.762 10.5075 150.762 9.71193C150.79 8.69685 150.57 7.91495 150.104 7.36626C149.665 6.79012 149.034 6.39232 148.211 6.17284C147.415 5.92592 146.469 5.80247 145.371 5.80247H139.569V13.9918Z" fill="#6A48EE"/>
<path d="M174.197 29.7942C171.343 29.7942 168.998 29.2593 167.16 28.1893C165.349 27.1193 164.005 25.583 163.127 23.5802C162.276 21.5775 161.851 19.177 161.851 16.3786V0.329219H167.736V16.6667C167.736 17.9835 167.928 19.2318 168.312 20.4115C168.723 21.5638 169.395 22.5103 170.328 23.251C171.288 23.9643 172.592 24.321 174.238 24.321C175.911 24.321 177.201 23.9643 178.106 23.251C179.011 22.5103 179.642 21.5501 179.999 20.3704C180.356 19.1907 180.534 17.9561 180.534 16.6667V0.329219H186.419V16.3786C186.419 19.1495 185.994 21.5501 185.143 23.5802C184.293 25.583 182.962 27.1193 181.151 28.1893C179.341 29.2593 177.022 29.7942 174.197 29.7942Z" fill="#6A48EE"/>
</svg>
